<svg width="30" height="31" viewBox="0 0 30 31" fill="none" xmlns="http://www.w3.org/2000/svg">
<path d="M6.40125 22.7549C9.02427 21.2723 11.987 20.4954 15 20.4999C18.125 20.4999 21.0587 21.3187 23.5987 22.7549M18.75 12.9999C18.75 13.9945 18.3549 14.9483 17.6516 15.6516C16.9484 16.3548 15.9946 16.7499 15 16.7499C14.0054 16.7499 13.0516 16.3548 12.3483 15.6516C11.6451 14.9483 11.25 13.9945 11.25 12.9999C11.25 12.0053 11.6451 11.0515 12.3483 10.3482C13.0516 9.64498 14.0054 9.24989 15 9.24989C15.9946 9.24989 16.9484 9.64498 17.6516 10.3482C18.3549 11.0515 18.75 12.0053 18.75 12.9999ZM26.25 15.4999C26.25 16.9773 25.959 18.4402 25.3936 19.8051C24.8283 21.17 23.9996 22.4102 22.9549 23.4549C21.9103 24.4996 20.6701 25.3282 19.3052 25.8936C17.9403 26.459 16.4774 26.7499 15 26.7499C13.5226 26.7499 12.0597 26.459 10.6948 25.8936C9.3299 25.3282 8.08971 24.4996 7.04505 23.4549C6.00039 22.4102 5.17172 21.17 4.60636 19.8051C4.04099 18.4402 3.75 16.9773 3.75 15.4999C3.75 12.5162 4.93526 9.65473 7.04505 7.54494C9.15483 5.43515 12.0163 4.24988 15 4.24988C17.9837 4.24988 20.8452 5.43515 22.9549 7.54494C25.0647 9.65473 26.25 12.5162 26.25 15.4999Z" stroke="#27272A" stroke-width="1.875" stroke-linecap="round" stroke-linejoin="round"/>
</svg>
