<svg width="43" height="45" viewBox="0 0 43 45" fill="none" xmlns="http://www.w3.org/2000/svg">
<rect x="0.5" y="1.5" width="25" height="25" stroke="#18181B"/>
<path d="M23.0156 33.2655L20.0156 36.2655C19.9452 36.3359 19.8498 36.3754 19.7503 36.3754C19.6508 36.3754 19.5553 36.3359 19.485 36.2655C19.4146 36.1952 19.3751 36.0997 19.3751 36.0002C19.3751 35.9007 19.4146 35.8053 19.485 35.7349L21.8447 33.3752H4.15592L6.51561 35.7349C6.58597 35.8053 6.6255 35.9007 6.6255 36.0002C6.6255 36.0997 6.58597 36.1952 6.51561 36.2655C6.44524 36.3359 6.34981 36.3754 6.2503 36.3754C6.15078 36.3754 6.05535 36.3359 5.98498 36.2655L2.98498 33.2655C2.95012 33.2307 2.92246 33.1893 2.90359 33.1438C2.88471 33.0983 2.875 33.0495 2.875 33.0002C2.875 32.9509 2.88471 32.9021 2.90359 32.8566C2.92246 32.8111 2.95012 32.7697 2.98498 32.7349L5.98498 29.7349C6.01982 29.7001 6.06119 29.6724 6.10671 29.6536C6.15223 29.6347 6.20102 29.625 6.2503 29.625C6.29957 29.625 6.34836 29.6347 6.39388 29.6536C6.4394 29.6724 6.48077 29.7001 6.51561 29.7349C6.55045 29.7697 6.57809 29.8111 6.59694 29.8566C6.6158 29.9021 6.6255 29.9509 6.6255 30.0002C6.6255 30.0495 6.6158 30.0983 6.59694 30.1438C6.57809 30.1893 6.55045 30.2307 6.51561 30.2655L4.15592 32.6252H21.8447L19.485 30.2655C19.4146 30.1952 19.3751 30.0997 19.3751 30.0002C19.3751 29.9007 19.4146 29.8053 19.485 29.7349C19.5553 29.6645 19.6508 29.625 19.7503 29.625C19.8498 29.625 19.9452 29.6645 20.0156 29.7349L23.0156 32.7349C23.0505 32.7697 23.0781 32.8111 23.097 32.8566C23.1159 32.9021 23.1256 32.9509 23.1256 33.0002C23.1256 33.0495 23.1159 33.0983 23.097 33.1438C23.0781 33.1893 23.0505 33.2307 23.0156 33.2655Z" fill="#18181B"/>
<path d="M30.7345 23.4833L27.7345 20.2833C27.6641 20.2083 27.6246 20.1065 27.6246 20.0003C27.6246 19.8942 27.6641 19.7924 27.7345 19.7173C27.8048 19.6423 27.9003 19.6001 27.9998 19.6001C28.0993 19.6001 28.1947 19.6423 28.2651 19.7173L30.6248 22.2343V3.36631L28.2651 5.88331C28.1947 5.95837 28.0993 6.00054 27.9998 6.00054C27.9003 6.00054 27.8048 5.95837 27.7345 5.88331C27.6641 5.80826 27.6246 5.70646 27.6246 5.60031C27.6246 5.49417 27.6641 5.39237 27.7345 5.31731L30.7345 2.11731C30.7693 2.08012 30.8107 2.05062 30.8562 2.03049C30.9017 2.01036 30.9505 2 30.9998 2C31.0491 2 31.0979 2.01036 31.1434 2.03049C31.1889 2.05062 31.2303 2.08012 31.2651 2.11731L34.2651 5.31731C34.2999 5.35448 34.3276 5.3986 34.3464 5.44716C34.3653 5.49571 34.375 5.54776 34.375 5.60031C34.375 5.65287 34.3653 5.70492 34.3464 5.75347C34.3276 5.80203 34.2999 5.84615 34.2651 5.88331C34.2303 5.92048 34.1889 5.94996 34.1434 5.97007C34.0979 5.99018 34.0491 6.00054 33.9998 6.00054C33.9505 6.00054 33.9017 5.99018 33.8562 5.97007C33.8107 5.94996 33.7693 5.92048 33.7345 5.88331L31.3748 3.36631V22.2343L33.7345 19.7173C33.8048 19.6423 33.9003 19.6001 33.9998 19.6001C34.0993 19.6001 34.1947 19.6423 34.2651 19.7173C34.3355 19.7924 34.375 19.8942 34.375 20.0003C34.375 20.1065 34.3355 20.2083 34.2651 20.2833L31.2651 23.4833C31.2303 23.5205 31.1889 23.55 31.1434 23.5701C31.0979 23.5903 31.0491 23.6006 30.9998 23.6006C30.9505 23.6006 30.9017 23.5903 30.8562 23.5701C30.8107 23.55 30.7693 23.5205 30.7345 23.4833Z" fill="#18181B"/>
</svg>
