<svg width="21" height="16" viewBox="0 0 21 16" fill="none" xmlns="http://www.w3.org/2000/svg">
<path d="M18.7924 0.875H1.48884C1.10641 0.875 0.739637 1.02513 0.469216 1.29237C0.198796 1.55961 0.046875 1.92207 0.046875 2.3V13.7C0.046875 14.0779 0.198796 14.4404 0.469216 14.7076C0.739637 14.9749 1.10641 15.125 1.48884 15.125H18.7924C19.1748 15.125 19.5416 14.9749 19.812 14.7076C20.0825 14.4404 20.2344 14.0779 20.2344 13.7V2.3C20.2344 1.92207 20.0825 1.55961 19.812 1.29237C19.5416 1.02513 19.1748 0.875 18.7924 0.875ZM18.7924 2.3V4.4375H1.48884V2.3H18.7924ZM18.7924 13.7H1.48884V5.8625H18.7924V13.7ZM17.3504 11.5625C17.3504 11.7515 17.2745 11.9327 17.1393 12.0663C17.0041 12.1999 16.8207 12.275 16.6295 12.275H13.7455C13.5543 12.275 13.3709 12.1999 13.2357 12.0663C13.1005 11.9327 13.0246 11.7515 13.0246 11.5625C13.0246 11.3735 13.1005 11.1923 13.2357 11.0587C13.3709 10.9251 13.5543 10.85 13.7455 10.85H16.6295C16.8207 10.85 17.0041 10.9251 17.1393 11.0587C17.2745 11.1923 17.3504 11.3735 17.3504 11.5625ZM11.5826 11.5625C11.5826 11.7515 11.5066 11.9327 11.3714 12.0663C11.2362 12.1999 11.0528 12.275 10.8616 12.275H9.41964C9.22843 12.275 9.04504 12.1999 8.90983 12.0663C8.77462 11.9327 8.69866 11.7515 8.69866 11.5625C8.69866 11.3735 8.77462 11.1923 8.90983 11.0587C9.04504 10.9251 9.22843 10.85 9.41964 10.85H10.8616C11.0528 10.85 11.2362 10.9251 11.3714 11.0587C11.5066 11.1923 11.5826 11.3735 11.5826 11.5625Z" fill="#7B7373"/>
</svg>
