<svg width="28" height="16" viewBox="0 0 28 16" fill="none" xmlns="http://www.w3.org/2000/svg">
<path d="M13.8177 3.56333C12.9402 3.56333 12.0824 3.82354 11.3528 4.31104C10.6232 4.79854 10.0546 5.49145 9.71877 6.30213C9.38297 7.11282 9.29511 8.00488 9.4663 8.8655C9.63749 9.72612 10.06 10.5166 10.6805 11.1371C11.301 11.7576 12.0915 12.1801 12.9521 12.3513C13.8128 12.5225 14.7048 12.4347 15.5155 12.0989C16.3262 11.7631 17.0191 11.1944 17.5066 10.4648C17.9941 9.73521 18.2543 8.87743 18.2543 7.99995C18.2543 6.82329 17.7869 5.69482 16.9548 4.86279C16.1228 4.03076 14.9943 3.56333 13.8177 3.56333ZM13.8177 10.6619C13.2912 10.6619 12.7765 10.5058 12.3388 10.2133C11.901 9.9208 11.5598 9.50506 11.3583 9.01865C11.1569 8.53223 11.1041 7.997 11.2068 7.48063C11.3096 6.96426 11.5631 6.48994 11.9354 6.11766C12.3077 5.74537 12.782 5.49184 13.2983 5.38913C13.8147 5.28642 14.35 5.33913 14.8364 5.54061C15.3228 5.74209 15.7385 6.08328 16.031 6.52104C16.3235 6.9588 16.4796 7.47347 16.4796 7.99995C16.4796 8.70595 16.1992 9.38304 15.7 9.88225C15.2008 10.3815 14.5237 10.6619 13.8177 10.6619ZM26.2402 0.0140381H1.39514C1.1598 0.0140381 0.934109 0.107524 0.767704 0.273929C0.601298 0.440335 0.507813 0.666029 0.507812 0.901362V15.0985C0.507813 15.3339 0.601298 15.5596 0.767704 15.726C0.934109 15.8924 1.1598 15.9859 1.39514 15.9859H26.2402C26.4755 15.9859 26.7012 15.8924 26.8676 15.726C27.034 15.5596 27.1275 15.3339 27.1275 15.0985V0.901362C27.1275 0.666029 27.034 0.440335 26.8676 0.273929C26.7012 0.107524 26.4755 0.0140381 26.2402 0.0140381ZM21.0993 14.2112H6.53607C6.23816 13.2037 5.6929 12.2867 4.94996 11.5437C4.20702 10.8008 3.29001 10.2555 2.28246 9.95761V6.04229C3.29001 5.74438 4.20702 5.19912 4.94996 4.45619C5.6929 3.71325 6.23816 2.79624 6.53607 1.78869H21.0993C21.3972 2.79624 21.9424 3.71325 22.6854 4.45619C23.4283 5.19912 24.3453 5.74438 25.3529 6.04229V9.95761C24.3453 10.2555 23.4283 10.8008 22.6854 11.5437C21.9424 12.2867 21.3972 13.2037 21.0993 14.2112ZM25.3529 4.15895C24.2886 3.7013 23.4403 2.85299 22.9826 1.78869H25.3529V4.15895ZM4.65272 1.78869C4.19508 2.85299 3.34676 3.7013 2.28246 4.15895V1.78869H4.65272ZM2.28246 11.841C3.34676 12.2986 4.19508 13.1469 4.65272 14.2112H2.28246V11.841ZM22.9826 14.2112C23.4403 13.1469 24.2886 12.2986 25.3529 11.841V14.2112H22.9826Z" fill="#71717A"/>
</svg>
