<svg width="19" height="16" viewBox="0 0 19 16" fill="none" xmlns="http://www.w3.org/2000/svg">
<path d="M1.27148 6.73813H3.1084V11.785H1.88379C1.7214 11.785 1.56565 11.8515 1.45082 11.9698C1.33599 12.0881 1.27148 12.2486 1.27148 12.4159C1.27148 12.5832 1.33599 12.7436 1.45082 12.862C1.56565 12.9803 1.7214 13.0467 1.88379 13.0467H16.5791C16.7415 13.0467 16.8972 12.9803 17.0121 12.862C17.1269 12.7436 17.1914 12.5832 17.1914 12.4159C17.1914 12.2486 17.1269 12.0881 17.0121 11.9698C16.8972 11.8515 16.7415 11.785 16.5791 11.785H15.3545V6.73813H17.1914C17.3246 6.738 17.4542 6.69309 17.5604 6.61024C17.6666 6.52738 17.7437 6.41109 17.78 6.27901C17.8162 6.14694 17.8097 6.00627 17.7614 5.87837C17.713 5.75046 17.6255 5.64229 17.5121 5.57026L9.55214 0.52338C9.45568 0.462279 9.34467 0.429932 9.23145 0.429932C9.11822 0.429932 9.00721 0.462279 8.91075 0.52338L0.95079 5.57026C0.837382 5.64229 0.749869 5.75046 0.701528 5.87837C0.653187 6.00627 0.646655 6.14694 0.682924 6.27901C0.719192 6.41109 0.796281 6.52738 0.902497 6.61024C1.00871 6.69309 1.13826 6.738 1.27148 6.73813ZM4.33301 6.73813H6.78223V11.785H4.33301V6.73813ZM10.4561 6.73813V11.785H8.00684V6.73813H10.4561ZM14.1299 11.785H11.6807V6.73813H14.1299V11.785ZM9.23145 1.80087L15.0284 5.47641H3.43445L9.23145 1.80087ZM18.416 14.9393C18.416 15.1066 18.3515 15.2671 18.2367 15.3854C18.1218 15.5037 17.9661 15.5702 17.8037 15.5702H0.65918C0.496786 15.5702 0.341044 15.5037 0.226215 15.3854C0.111385 15.2671 0.046875 15.1066 0.046875 14.9393C0.046875 14.772 0.111385 14.6115 0.226215 14.4932C0.341044 14.3749 0.496786 14.3084 0.65918 14.3084H17.8037C17.9661 14.3084 18.1218 14.3749 18.2367 14.4932C18.3515 14.6115 18.416 14.772 18.416 14.9393Z" fill="#71717A"/>
</svg>
