<svg width="30" height="30" viewBox="0 0 30 30" fill="none" xmlns="http://www.w3.org/2000/svg">
<path d="M25.3125 8.90625H3.28125V5.625C3.28125 5.50068 3.23186 5.38145 3.14396 5.29354C3.05605 5.20564 2.93682 5.15625 2.8125 5.15625C2.68818 5.15625 2.56895 5.20564 2.48104 5.29354C2.39314 5.38145 2.34375 5.50068 2.34375 5.625V24.375C2.34375 24.4993 2.39314 24.6185 2.48104 24.7065C2.56895 24.7944 2.68818 24.8438 2.8125 24.8438C2.93682 24.8438 3.05605 24.7944 3.14396 24.7065C3.23186 24.6185 3.28125 24.4993 3.28125 24.375V20.1562H28.5938V24.375C28.5938 24.4993 28.6431 24.6185 28.731 24.7065C28.819 24.7944 28.9382 24.8438 29.0625 24.8438C29.1868 24.8438 29.306 24.7944 29.394 24.7065C29.4819 24.6185 29.5312 24.4993 29.5312 24.375V13.125C29.5312 12.0061 29.0868 10.9331 28.2956 10.1419C27.5044 9.35072 26.4314 8.90625 25.3125 8.90625ZM3.28125 9.84375H12.6562V19.2188H3.28125V9.84375ZM13.5938 19.2188V9.84375H25.3125C26.1827 9.84375 27.0173 10.1895 27.6327 10.8048C28.248 11.4202 28.5938 12.2548 28.5938 13.125V19.2188H13.5938Z" fill="#18181B"/>
</svg>
